ffmpeg started on 2025-06-05 at 20:30:22
Report written to "D:\Convert\FFMetrics\reports\ssim_report-6.txt"
Log level: 32
Command line:
ffmpeg -hide_banner -nostdin -i "G:\\\xc0\xed\xe8\xec\xe5\\\xce\xed\xe3\xee\xe8\xed\xe3\xe8\\!_36_\xce\xf1\xe5\xed\xfc_2024\\DreamCast\\\xcd\xe5\xe3\xe0\xf2\xe8\xe2\xed\xfb\xe9 \xef\xee\xe7\xe8\xf2\xe8\xe2\xed\xfb\xe9 \xf0\xfb\xe1\xe0\xea\\[DC] NegaPosi Angler - 10_Telegram_HEVC.mkv" -i "G:\\\xc0\xed\xe8\xec\xe5\\\xce\xed\xe3\xee\xe8\xed\xe3\xe8\\!_36_\xce\xf1\xe5\xed\xfc_2024\\DreamCast\\\xcd\xe5\xe3\xe0\xf2\xe8\xe2\xed\xfb\xe9 \xef\xee\xe7\xe8\xf2\xe8\xe2\xed\xfb\xe9 \xf0\xfb\xe1\xe0\xea\\[DC] NegaPosi Angler - 10_Telegram.mp4" -lavfi "[0:v]settb=AVTB,setpts=PTS-STARTPTS,format=pix_fmts=yuv420p10,fps=24000/1001,scale=1920:1080:flags=bicubic[main];[1:v]settb=AVTB,setpts=PTS-STARTPTS,format=pix_fmts=yuv420p,fps=24000/1001,scale=1920:1080:flags=bicubic[ref];[main][ref]ssim=eof_action=endall:stats_file='D\\:/Convert/FFMetrics/logs/ssim_logfile-6.txt'" -f null -
Input #0, matroska,webm, from 'G:\Аниме\Онгоинги\!_36_Осень_2024\DreamCast\Негативный позитивный рыбак\[DC] NegaPosi Angler - 10_Telegram_HEVC.mkv':
  Metadata:
    COMPATIBLE_BRANDS: isomiso2avc1mp41
    MAJOR_BRAND     : isom
    MINOR_VERSION   : 512
    ENCODER         : Lavf61.7.100
  Duration: 00:23:46.73, start: -0.021000, bitrate: 786 kb/s
  Stream #0:0: Video: hevc (Main 10), yuv420p10le(tv, bt709, progressive), 1920x1080 [SAR 1:1 DAR 16:9], 23.98 fps, 23.98 tbr, 1k tbn (default)
      Metadata:
        HANDLER_NAME    : VideoHandler
        VENDOR_ID       : [0][0][0][0]
        ENCODER         : Lavc61.19.100 libx265
        BPS             : 589803
        DURATION        : 00:23:46.549708333
        NUMBER_OF_FRAMES: 34203
        NUMBER_OF_BYTES : 105172986
        _STATISTICS_WRITING_APP: mkvpropedit v66.0.0 ('Josie') 64-bit
        _STATISTICS_WRITING_DATE_UTC: 2025-05-31 14:07:20
        _STATISTICS_TAGS: BPS DURATION NUMBER_OF_FRAMES NUMBER_OF_BYTES
  Stream #0:1: Audio: aac (LC), 48000 Hz, stereo, fltp (default)
      Metadata:
        HANDLER_NAME    : SoundHandler
        VENDOR_ID       : [0][0][0][0]
        ENCODER         : Lavc61.19.100 aac
        BPS             : 193183
        DURATION        : 00:23:46.730000000
        NUMBER_OF_FRAMES: 66879
        NUMBER_OF_BYTES : 34452666
        _STATISTICS_WRITING_APP: mkvpropedit v66.0.0 ('Josie') 64-bit
        _STATISTICS_WRITING_DATE_UTC: 2025-05-31 14:07:20
        _STATISTICS_TAGS: BPS DURATION NUMBER_OF_FRAMES NUMBER_OF_BYTES
Input #1, mov,mp4,m4a,3gp,3g2,mj2, from 'G:\Аниме\Онгоинги\!_36_Осень_2024\DreamCast\Негативный позитивный рыбак\[DC] NegaPosi Angler - 10_Telegram.mp4':
  Metadata:
    major_brand     : isom
    minor_version   : 512
    compatible_brands: isomiso2avc1mp41
    encoder         : Lavf61.1.100
  Duration: 00:23:46.68, start: 0.000000, bitrate: 3768 kb/s
  Stream #1:0[0x1](und): Video: h264 (High) (avc1 / 0x31637661), yuv420p(tv, bt709, progressive), 1920x1080 [SAR 1:1 DAR 16:9], 3621 kb/s, 23.98 fps, 23.98 tbr, 24k tbn (default)
      Metadata:
        handler_name    : VideoHandler
        vendor_id       : [0][0][0][0]
        encoder         : Lavc61.3.100 h264_qsv
  Stream #1:1[0x2](und): Audio: aac (HE-AACv2) (mp4a / 0x6134706D), 48000 Hz, stereo, fltp, 144 kb/s (default)
      Metadata:
        handler_name    : SoundHandler
        vendor_id       : [0][0][0][0]
Stream mapping:
  Stream #0:0 (hevc) -> settb:default
  Stream #1:0 (h264) -> settb:default
  ssim:default -> Stream #0:0 (wrapped_avframe)
  Stream #0:1 -> #0:1 (aac (native) -> pcm_s16le (native))
Output #0, null, to 'pipe:':
  Metadata:
    COMPATIBLE_BRANDS: isomiso2avc1mp41
    MAJOR_BRAND     : isom
    MINOR_VERSION   : 512
    encoder         : Lavf61.7.100
  Stream #0:0: Video: wrapped_avframe, yuv420p10le(tv, bt709, progressive), 1920x1080 [SAR 1:1 DAR 16:9], q=2-31, 200 kb/s, 23.98 fps, 23.98 tbn
      Metadata:
        encoder         : Lavc61.19.100 wrapped_avframe
  Stream #0:1: Audio: pcm_s16le, 48000 Hz, stereo, s16, 1536 kb/s (default)
      Metadata:
        HANDLER_NAME    : SoundHandler
        VENDOR_ID       : [0][0][0][0]
        _STATISTICS_TAGS: BPS DURATION NUMBER_OF_FRAMES NUMBER_OF_BYTES
        BPS             : 193183
        DURATION        : 00:23:46.730000000
        NUMBER_OF_FRAMES: 66879
        NUMBER_OF_BYTES : 34452666
        _STATISTICS_WRITING_APP: mkvpropedit v66.0.0 ('Josie') 64-bit
        _STATISTICS_WRITING_DATE_UTC: 2025-05-31 14:07:20
        encoder         : Lavc61.19.100 pcm_s16le
frame=  170 fps=0.0 q=-0.0 size=N/A time=00:00:07.09 bitrate=N/A speed=13.6x    frame=  396 fps=384 q=-0.0 size=N/A time=00:00:16.51 bitrate=N/A speed=  16x    frame=  663 fps=427 q=-0.0 size=N/A time=00:00:27.65 bitrate=N/A speed=17.8x    frame=  925 fps=448 q=-0.0 size=N/A time=00:00:38.58 bitrate=N/A speed=18.7x    frame= 1156 fps=447 q=-0.0 size=N/A time=00:00:48.21 bitrate=N/A speed=18.6x    frame= 1375 fps=444 q=-0.0 size=N/A time=00:00:57.34 bitrate=N/A speed=18.5x    frame= 1629 fps=450 q=-0.0 size=N/A time=00:01:07.94 bitrate=N/A speed=18.8x    frame= 1869 fps=453 q=-0.0 size=N/A time=00:01:17.95 bitrate=N/A speed=18.9x    frame= 2118 fps=455 q=-0.0 size=N/A time=00:01:28.33 bitrate=N/A speed=  19x    frame= 2356 fps=456 q=-0.0 size=N/A time=00:01:38.26 bitrate=N/A speed=  19x    frame= 2596 fps=455 q=-0.0 size=N/A time=00:01:48.27 bitrate=N/A speed=  19x    frame= 2828 fps=456 q=-0.0 size=N/A time=00:01:57.95 bitrate=N/A speed=  19x    frame= 3079 fps=458 q=-0.0 size=N/A time=00:02:08.41 bitrate=N/A speed=19.1x    frame= 3332 fps=460 q=-0.0 size=N/A time=00:02:18.97 bitrate=N/A speed=19.2x    frame= 3587 fps=462 q=-0.0 size=N/A time=00:02:29.60 bitrate=N/A speed=19.3x    frame= 3836 fps=464 q=-0.0 size=N/A time=00:02:39.99 bitrate=N/A speed=19.4x    frame= 4092 fps=465 q=-0.0 size=N/A time=00:02:50.67 bitrate=N/A speed=19.4x    frame= 4340 fps=466 q=-0.0 size=N/A time=00:03:01.01 bitrate=N/A speed=19.5x    frame= 4597 fps=468 q=-0.0 size=N/A time=00:03:11.73 bitrate=N/A speed=19.5x    frame= 4844 fps=468 q=-0.0 size=N/A time=00:03:22.03 bitrate=N/A speed=19.5x    frame= 5090 fps=469 q=-0.0 size=N/A time=00:03:32.29 bitrate=N/A speed=19.6x    frame= 5334 fps=470 q=-0.0 size=N/A time=00:03:42.47 bitrate=N/A speed=19.6x    frame= 5585 fps=470 q=-0.0 size=N/A time=00:03:52.94 bitrate=N/A speed=19.6x    frame= 5836 fps=471 q=-0.0 size=N/A time=00:04:03.40 bitrate=N/A speed=19.6x    frame= 6069 fps=470 q=-0.0 size=N/A time=00:04:13.12 bitrate=N/A speed=19.6x    frame= 6329 fps=471 q=-0.0 size=N/A time=00:04:23.97 bitrate=N/A speed=19.6x    frame= 6589 fps=473 q=-0.0 size=N/A time=00:04:34.81 bitrate=N/A speed=19.7x    frame= 6849 fps=474 q=-0.0 size=N/A time=00:04:45.66 bitrate=N/A speed=19.8x    frame= 7117 fps=475 q=-0.0 size=N/A time=00:04:56.83 bitrate=N/A speed=19.8x    frame= 7381 fps=476 q=-0.0 size=N/A time=00:05:07.84 bitrate=N/A speed=19.9x    frame= 7631 fps=477 q=-0.0 size=N/A time=00:05:18.27 bitrate=N/A speed=19.9x    frame= 7871 fps=477 q=-0.0 size=N/A time=00:05:28.28 bitrate=N/A speed=19.9x    frame= 8140 fps=478 q=-0.0 size=N/A time=00:05:39.50 bitrate=N/A speed=19.9x    frame= 8412 fps=479 q=-0.0 size=N/A time=00:05:50.85 bitrate=N/A speed=  20x    frame= 8650 fps=479 q=-0.0 size=N/A time=00:06:00.77 bitrate=N/A speed=  20x    frame= 8910 fps=479 q=-0.0 size=N/A time=00:06:11.62 bitrate=N/A speed=  20x    frame= 9155 fps=479 q=-0.0 size=N/A time=00:06:21.83 bitrate=N/A speed=  20x    frame= 9373 fps=478 q=-0.0 size=N/A time=00:06:30.93 bitrate=N/A speed=19.9x    frame= 9633 fps=478 q=-0.0 size=N/A time=00:06:41.77 bitrate=N/A speed=  20x    frame= 9836 fps=476 q=-0.0 size=N/A time=00:06:50.24 bitrate=N/A speed=19.9x    frame=10053 fps=475 q=-0.0 size=N/A time=00:06:59.29 bitrate=N/A speed=19.8x    frame=10311 fps=476 q=-0.0 size=N/A time=00:07:10.05 bitrate=N/A speed=19.8x    frame=10557 fps=476 q=-0.0 size=N/A time=00:07:20.31 bitrate=N/A speed=19.8x    frame=10791 fps=475 q=-0.0 size=N/A time=00:07:30.07 bitrate=N/A speed=19.8x    frame=11023 fps=474 q=-0.0 size=N/A time=00:07:39.75 bitrate=N/A speed=19.8x    frame=11263 fps=474 q=-0.0 size=N/A time=00:07:49.76 bitrate=N/A speed=19.8x    frame=11444 fps=472 q=-0.0 size=N/A time=00:07:57.31 bitrate=N/A speed=19.7x    frame=11665 fps=471 q=-0.0 size=N/A time=00:08:06.52 bitrate=N/A speed=19.6x    frame=11888 fps=470 q=-0.0 size=N/A time=00:08:15.82 bitrate=N/A speed=19.6x    frame=12123 fps=469 q=-0.0 size=N/A time=00:08:25.63 bitrate=N/A speed=19.6x    frame=12343 fps=469 q=-0.0 size=N/A time=00:08:34.80 bitrate=N/A speed=19.5x    frame=12593 fps=469 q=-0.0 size=N/A time=00:08:45.23 bitrate=N/A speed=19.6x    frame=12836 fps=469 q=-0.0 size=N/A time=00:08:55.36 bitrate=N/A speed=19.6x    frame=13072 fps=469 q=-0.0 size=N/A time=00:09:05.21 bitrate=N/A speed=19.6x    frame=13296 fps=468 q=-0.0 size=N/A time=00:09:14.55 bitrate=N/A speed=19.5x    frame=13549 fps=469 q=-0.0 size=N/A time=00:09:25.10 bitrate=N/A speed=19.5x    frame=13762 fps=468 q=-0.0 size=N/A time=00:09:33.99 bitrate=N/A speed=19.5x    frame=13978 fps=467 q=-0.0 size=N/A time=00:09:42.99 bitrate=N/A speed=19.5x    frame=14219 fps=467 q=-0.0 size=N/A time=00:09:53.05 bitrate=N/A speed=19.5x    frame=14457 fps=467 q=-0.0 size=N/A time=00:10:02.97 bitrate=N/A speed=19.5x    frame=14697 fps=467 q=-0.0 size=N/A time=00:10:12.98 bitrate=N/A speed=19.5x    frame=14924 fps=466 q=-0.0 size=N/A time=00:10:22.45 bitrate=N/A speed=19.5x    frame=15162 fps=466 q=-0.0 size=N/A time=00:10:32.38 bitrate=N/A speed=19.4x    frame=15407 fps=466 q=-0.0 size=N/A time=00:10:42.60 bitrate=N/A speed=19.4x    frame=15668 fps=467 q=-0.0 size=N/A time=00:10:53.48 bitrate=N/A speed=19.5x    frame=15911 fps=467 q=-0.0 size=N/A time=00:11:03.62 bitrate=N/A speed=19.5x    frame=16135 fps=467 q=-0.0 size=N/A time=00:11:12.96 bitrate=N/A speed=19.5x    frame=16369 fps=466 q=-0.0 size=N/A time=00:11:22.72 bitrate=N/A speed=19.4x    frame=16618 fps=467 q=-0.0 size=N/A time=00:11:33.10 bitrate=N/A speed=19.5x    frame=16857 fps=467 q=-0.0 size=N/A time=00:11:43.07 bitrate=N/A speed=19.5x    frame=17102 fps=467 q=-0.0 size=N/A time=00:11:53.29 bitrate=N/A speed=19.5x    frame=17338 fps=467 q=-0.0 size=N/A time=00:12:03.13 bitrate=N/A speed=19.5x    frame=17590 fps=467 q=-0.0 size=N/A time=00:12:13.64 bitrate=N/A speed=19.5x    frame=17860 fps=468 q=-0.0 size=N/A time=00:12:24.91 bitrate=N/A speed=19.5x    frame=18127 fps=468 q=-0.0 size=N/A time=00:12:36.04 bitrate=N/A speed=19.5x    frame=18380 fps=469 q=-0.0 size=N/A time=00:12:46.59 bitrate=N/A speed=19.5x    frame=18625 fps=469 q=-0.0 size=N/A time=00:12:56.81 bitrate=N/A speed=19.6x    frame=18888 fps=469 q=-0.0 size=N/A time=00:13:07.78 bitrate=N/A speed=19.6x    frame=19132 fps=469 q=-0.0 size=N/A time=00:13:17.96 bitrate=N/A speed=19.6x    frame=19388 fps=470 q=-0.0 size=N/A time=00:13:28.64 bitrate=N/A speed=19.6x    frame=19631 fps=470 q=-0.0 size=N/A time=00:13:38.77 bitrate=N/A speed=19.6x    frame=19840 fps=469 q=-0.0 size=N/A time=00:13:47.49 bitrate=N/A speed=19.6x    frame=20044 fps=468 q=-0.0 size=N/A time=00:13:56.00 bitrate=N/A speed=19.5x    frame=20279 fps=468 q=-0.0 size=N/A time=00:14:05.80 bitrate=N/A speed=19.5x    frame=20499 fps=467 q=-0.0 size=N/A time=00:14:14.97 bitrate=N/A speed=19.5x    frame=20744 fps=467 q=-0.0 size=N/A time=00:14:25.19 bitrate=N/A speed=19.5x    frame=20974 fps=467 q=-0.0 size=N/A time=00:14:34.79 bitrate=N/A speed=19.5x    frame=21229 fps=467 q=-0.0 size=N/A time=00:14:45.42 bitrate=N/A speed=19.5x    frame=21468 fps=467 q=-0.0 size=N/A time=00:14:55.39 bitrate=N/A speed=19.5x    frame=21721 fps=468 q=-0.0 size=N/A time=00:15:05.94 bitrate=N/A speed=19.5x    frame=21980 fps=468 q=-0.0 size=N/A time=00:15:16.74 bitrate=N/A speed=19.5x    frame=22224 fps=468 q=-0.0 size=N/A time=00:15:26.92 bitrate=N/A speed=19.5x    frame=22480 fps=468 q=-0.0 size=N/A time=00:15:37.60 bitrate=N/A speed=19.5x    frame=22736 fps=469 q=-0.0 size=N/A time=00:15:48.28 bitrate=N/A speed=19.5x    frame=22985 fps=469 q=-0.0 size=N/A time=00:15:58.66 bitrate=N/A speed=19.6x    frame=23246 fps=469 q=-0.0 size=N/A time=00:16:09.55 bitrate=N/A speed=19.6x    frame=23502 fps=469 q=-0.0 size=N/A time=00:16:20.22 bitrate=N/A speed=19.6x    frame=23748 fps=469 q=-0.0 size=N/A time=00:16:30.48 bitrate=N/A speed=19.6x    frame=23993 fps=470 q=-0.0 size=N/A time=00:16:40.70 bitrate=N/A speed=19.6x    frame=24223 fps=469 q=-0.0 size=N/A time=00:16:50.30 bitrate=N/A speed=19.6x    frame=24451 fps=469 q=-0.0 size=N/A time=00:16:59.81 bitrate=N/A speed=19.6x    frame=24685 fps=469 q=-0.0 size=N/A time=00:17:09.57 bitrate=N/A speed=19.6x    frame=24919 fps=469 q=-0.0 size=N/A time=00:17:19.32 bitrate=N/A speed=19.6x    frame=25169 fps=469 q=-0.0 size=N/A time=00:17:29.75 bitrate=N/A speed=19.6x    frame=25398 fps=469 q=-0.0 size=N/A time=00:17:39.30 bitrate=N/A speed=19.5x    frame=25634 fps=469 q=-0.0 size=N/A time=00:17:49.15 bitrate=N/A speed=19.5x    frame=25899 fps=469 q=-0.0 size=N/A time=00:18:00.20 bitrate=N/A speed=19.6x    frame=26142 fps=469 q=-0.0 size=N/A time=00:18:10.33 bitrate=N/A speed=19.6x    frame=26400 fps=469 q=-0.0 size=N/A time=00:18:21.10 bitrate=N/A speed=19.6x    frame=26653 fps=469 q=-0.0 size=N/A time=00:18:31.65 bitrate=N/A speed=19.6x    frame=26909 fps=470 q=-0.0 size=N/A time=00:18:42.32 bitrate=N/A speed=19.6x    frame=27177 fps=470 q=-0.0 size=N/A time=00:18:53.50 bitrate=N/A speed=19.6x    frame=27440 fps=470 q=-0.0 size=N/A time=00:19:04.47 bitrate=N/A speed=19.6x    frame=27706 fps=471 q=-0.0 size=N/A time=00:19:15.57 bitrate=N/A speed=19.6x    frame=27977 fps=471 q=-0.0 size=N/A time=00:19:26.87 bitrate=N/A speed=19.7x    frame=28230 fps=471 q=-0.0 size=N/A time=00:19:37.42 bitrate=N/A speed=19.7x    frame=28495 fps=472 q=-0.0 size=N/A time=00:19:48.47 bitrate=N/A speed=19.7x    frame=28731 fps=472 q=-0.0 size=N/A time=00:19:58.32 bitrate=N/A speed=19.7x    frame=28988 fps=472 q=-0.0 size=N/A time=00:20:09.04 bitrate=N/A speed=19.7x    frame=29262 fps=472 q=-0.0 size=N/A time=00:20:20.46 bitrate=N/A speed=19.7x    frame=29507 fps=472 q=-0.0 size=N/A time=00:20:30.72 bitrate=N/A speed=19.7x    frame=29754 fps=472 q=-0.0 size=N/A time=00:20:40.98 bitrate=N/A speed=19.7x    frame=30012 fps=473 q=-0.0 size=N/A time=00:20:51.75 bitrate=N/A speed=19.7x    frame=30278 fps=473 q=-0.0 size=N/A time=00:21:02.84 bitrate=N/A speed=19.7x    frame=30534 fps=473 q=-0.0 size=N/A time=00:21:13.52 bitrate=N/A speed=19.7x    frame=30780 fps=473 q=-0.0 size=N/A time=00:21:23.78 bitrate=N/A speed=19.7x    frame=31030 fps=473 q=-0.0 size=N/A time=00:21:34.20 bitrate=N/A speed=19.7x    frame=31290 fps=474 q=-0.0 size=N/A time=00:21:45.05 bitrate=N/A speed=19.8x    frame=31530 fps=474 q=-0.0 size=N/A time=00:21:55.06 bitrate=N/A speed=19.7x    frame=31790 fps=474 q=-0.0 size=N/A time=00:22:05.90 bitrate=N/A speed=19.8x    frame=32032 fps=474 q=-0.0 size=N/A time=00:22:16.00 bitrate=N/A speed=19.8x    frame=32290 fps=474 q=-0.0 size=N/A time=00:22:26.76 bitrate=N/A speed=19.8x    frame=32544 fps=474 q=-0.0 size=N/A time=00:22:37.35 bitrate=N/A speed=19.8x    frame=32800 fps=474 q=-0.0 size=N/A time=00:22:48.03 bitrate=N/A speed=19.8x    frame=33062 fps=474 q=-0.0 size=N/A time=00:22:58.96 bitrate=N/A speed=19.8x    frame=33294 fps=474 q=-0.0 size=N/A time=00:23:08.63 bitrate=N/A speed=19.8x    frame=33525 fps=474 q=-0.0 size=N/A time=00:23:18.27 bitrate=N/A speed=19.8x    frame=33749 fps=474 q=-0.0 size=N/A time=00:23:27.61 bitrate=N/A speed=19.8x    frame=33977 fps=474 q=-0.0 size=N/A time=00:23:37.12 bitrate=N/A speed=19.8x    [Parsed_ssim_10 @ 00000223d5673380] SSIM Y:0.994097 (22.289401) U:0.994397 (22.515802) V:0.994519 (22.611120) All:0.994217 (22.378763)
[out#0/null @ 00000223d5624c00] video:14697KiB audio:267516KiB subtitle:0KiB other streams:0KiB global headers:0KiB muxing overhead: unknown
frame=34203 fps=474 q=-0.0 Lsize=N/A time=00:23:46.55 bitrate=N/A speed=19.8x    
